<mxfile host="app.diagrams.net" agent="Mozilla/5.0 (Macintosh; Intel Mac OS X 10_15_7) AppleWebKit/537.36 (KHTML, like Gecko) Chrome/128.0.0.0 Safari/537.36" version="24.7.14">
  <diagram name="sequence_diagram" id="7sgo6bR_hd0uOoM_-nex">
    <mxGraphModel dx="419" dy="265" grid="1" gridSize="10" guides="1" tooltips="1" connect="1" arrows="1" fold="1" page="1" pageScale="1" pageWidth="850" pageHeight="1100" math="0" shadow="0">
      <root>
        <mxCell id="0" />
        <mxCell id="1" parent="0" />
        <mxCell id="2CJzM1UP2dfj2kKMceD9-52" value="" style="rounded=0;whiteSpace=wrap;html=1;" vertex="1" parent="1">
          <mxGeometry x="100" y="130" width="620" height="350" as="geometry" />
        </mxCell>
        <mxCell id="2CJzM1UP2dfj2kKMceD9-2" value="&lt;b&gt;Node 2 (id:9)&lt;/b&gt;" style="rounded=0;whiteSpace=wrap;html=1;" vertex="1" parent="1">
          <mxGeometry x="440" y="180" width="90" height="20" as="geometry" />
        </mxCell>
        <mxCell id="2CJzM1UP2dfj2kKMceD9-3" value="&lt;b&gt;Node 3 (id:8)&lt;/b&gt;" style="rounded=0;whiteSpace=wrap;html=1;" vertex="1" parent="1">
          <mxGeometry x="600" y="180" width="90" height="20" as="geometry" />
        </mxCell>
        <mxCell id="2CJzM1UP2dfj2kKMceD9-7" value="" style="endArrow=none;html=1;rounded=0;entryX=0.5;entryY=1;entryDx=0;entryDy=0;dashed=1;dashPattern=8 8;" edge="1" parent="1" source="2CJzM1UP2dfj2kKMceD9-46">
          <mxGeometry width="50" height="50" relative="1" as="geometry">
            <mxPoint x="480" y="440" as="sourcePoint" />
            <mxPoint x="479.84000000000003" y="200" as="targetPoint" />
          </mxGeometry>
        </mxCell>
        <mxCell id="2CJzM1UP2dfj2kKMceD9-8" value="" style="endArrow=none;html=1;rounded=0;entryX=0.387;entryY=1.01;entryDx=0;entryDy=0;dashed=1;dashPattern=8 8;entryPerimeter=0;" edge="1" parent="1" source="2CJzM1UP2dfj2kKMceD9-48" target="2CJzM1UP2dfj2kKMceD9-3">
          <mxGeometry width="50" height="50" relative="1" as="geometry">
            <mxPoint x="635" y="440" as="sourcePoint" />
            <mxPoint x="639.84" y="200" as="targetPoint" />
          </mxGeometry>
        </mxCell>
        <mxCell id="2CJzM1UP2dfj2kKMceD9-18" value="" style="endArrow=classic;html=1;rounded=0;exitX=0;exitY=0.5;exitDx=0;exitDy=0;" edge="1" parent="1">
          <mxGeometry relative="1" as="geometry">
            <mxPoint x="315" y="265" as="sourcePoint" />
            <mxPoint x="160" y="265" as="targetPoint" />
          </mxGeometry>
        </mxCell>
        <mxCell id="2CJzM1UP2dfj2kKMceD9-19" value="Check Leader Node" style="edgeLabel;resizable=0;html=1;;align=center;verticalAlign=middle;" connectable="0" vertex="1" parent="2CJzM1UP2dfj2kKMceD9-18">
          <mxGeometry relative="1" as="geometry" />
        </mxCell>
        <mxCell id="2CJzM1UP2dfj2kKMceD9-11" value="&lt;b&gt;Leader Node (id: 11)&lt;/b&gt;" style="rounded=0;whiteSpace=wrap;html=1;container=0;" vertex="1" parent="1">
          <mxGeometry x="120" y="180" width="120" height="20" as="geometry" />
        </mxCell>
        <mxCell id="2CJzM1UP2dfj2kKMceD9-12" value="" style="endArrow=none;html=1;rounded=0;dashed=1;dashPattern=8 8;entryX=0.336;entryY=1.07;entryDx=0;entryDy=0;entryPerimeter=0;" edge="1" parent="1" source="2CJzM1UP2dfj2kKMceD9-26" target="2CJzM1UP2dfj2kKMceD9-11">
          <mxGeometry width="50" height="50" relative="1" as="geometry">
            <mxPoint x="160" y="480" as="sourcePoint" />
            <mxPoint x="160" y="210" as="targetPoint" />
          </mxGeometry>
        </mxCell>
        <mxCell id="2CJzM1UP2dfj2kKMceD9-1" value="&lt;b&gt;Node 1 (id:10)&lt;/b&gt;" style="rounded=0;whiteSpace=wrap;html=1;" vertex="1" parent="1">
          <mxGeometry x="280" y="180" width="90" height="20" as="geometry" />
        </mxCell>
        <mxCell id="2CJzM1UP2dfj2kKMceD9-27" value="" style="endArrow=none;html=1;rounded=0;entryX=0.5;entryY=1;entryDx=0;entryDy=0;dashed=1;dashPattern=8 8;" edge="1" parent="1" target="2CJzM1UP2dfj2kKMceD9-26">
          <mxGeometry width="50" height="50" relative="1" as="geometry">
            <mxPoint x="160" y="440" as="sourcePoint" />
            <mxPoint x="160" y="200" as="targetPoint" />
          </mxGeometry>
        </mxCell>
        <mxCell id="2CJzM1UP2dfj2kKMceD9-26" value="" style="shape=mxgraph.sysml.x;fontSize=13;strokeWidth=2;container=0;" vertex="1" parent="1">
          <mxGeometry x="150" y="220" width="20" height="20" as="geometry" />
        </mxCell>
        <mxCell id="2CJzM1UP2dfj2kKMceD9-32" value="" style="endArrow=none;html=1;rounded=0;entryX=0.5;entryY=1;entryDx=0;entryDy=0;dashed=1;dashPattern=8 8;" edge="1" parent="1" target="2CJzM1UP2dfj2kKMceD9-31">
          <mxGeometry width="50" height="50" relative="1" as="geometry">
            <mxPoint x="320" y="440" as="sourcePoint" />
            <mxPoint x="320" y="200" as="targetPoint" />
          </mxGeometry>
        </mxCell>
        <mxCell id="2CJzM1UP2dfj2kKMceD9-31" value="" style="rounded=0;whiteSpace=wrap;html=1;" vertex="1" parent="1">
          <mxGeometry x="315" y="260" width="10" height="100" as="geometry" />
        </mxCell>
        <mxCell id="2CJzM1UP2dfj2kKMceD9-33" value="" style="endArrow=classic;html=1;rounded=0;entryX=0;entryY=0.25;entryDx=0;entryDy=0;exitX=0.97;exitY=0.372;exitDx=0;exitDy=0;edgeStyle=orthogonalEdgeStyle;exitPerimeter=0;" edge="1" parent="1" source="2CJzM1UP2dfj2kKMceD9-31" target="2CJzM1UP2dfj2kKMceD9-43">
          <mxGeometry relative="1" as="geometry">
            <mxPoint x="325" y="300" as="sourcePoint" />
            <mxPoint x="470" y="300" as="targetPoint" />
          </mxGeometry>
        </mxCell>
        <mxCell id="2CJzM1UP2dfj2kKMceD9-34" value="Election request" style="edgeLabel;resizable=0;html=1;;align=center;verticalAlign=middle;" connectable="0" vertex="1" parent="2CJzM1UP2dfj2kKMceD9-33">
          <mxGeometry relative="1" as="geometry">
            <mxPoint x="-68" as="offset" />
          </mxGeometry>
        </mxCell>
        <mxCell id="2CJzM1UP2dfj2kKMceD9-37" value="" style="endArrow=classic;html=1;rounded=0;entryX=1.013;entryY=0.533;entryDx=0;entryDy=0;exitX=0;exitY=0.75;exitDx=0;exitDy=0;dashed=1;entryPerimeter=0;" edge="1" parent="1" source="2CJzM1UP2dfj2kKMceD9-43" target="2CJzM1UP2dfj2kKMceD9-31">
          <mxGeometry relative="1" as="geometry">
            <mxPoint x="470" y="315" as="sourcePoint" />
            <mxPoint x="500" y="300" as="targetPoint" />
          </mxGeometry>
        </mxCell>
        <mxCell id="2CJzM1UP2dfj2kKMceD9-38" value="Acknowledgment" style="edgeLabel;resizable=0;html=1;;align=center;verticalAlign=middle;" connectable="0" vertex="1" parent="2CJzM1UP2dfj2kKMceD9-37">
          <mxGeometry relative="1" as="geometry">
            <mxPoint x="82" as="offset" />
          </mxGeometry>
        </mxCell>
        <mxCell id="2CJzM1UP2dfj2kKMceD9-43" value="" style="rounded=0;whiteSpace=wrap;html=1;" vertex="1" parent="1">
          <mxGeometry x="630" y="290" width="10" height="30" as="geometry" />
        </mxCell>
        <mxCell id="2CJzM1UP2dfj2kKMceD9-45" value="" style="endArrow=none;html=1;rounded=0;entryX=0.443;entryY=1.024;entryDx=0;entryDy=0;dashed=1;dashPattern=8 8;entryPerimeter=0;" edge="1" parent="1" target="2CJzM1UP2dfj2kKMceD9-1">
          <mxGeometry width="50" height="50" relative="1" as="geometry">
            <mxPoint x="320" y="260" as="sourcePoint" />
            <mxPoint x="330" y="390" as="targetPoint" />
          </mxGeometry>
        </mxCell>
        <mxCell id="2CJzM1UP2dfj2kKMceD9-36" value="" style="rounded=0;whiteSpace=wrap;html=1;" vertex="1" parent="1">
          <mxGeometry x="475" y="290" width="10" height="30" as="geometry" />
        </mxCell>
        <mxCell id="2CJzM1UP2dfj2kKMceD9-47" value="" style="endArrow=none;html=1;rounded=0;entryX=0.5;entryY=1;entryDx=0;entryDy=0;dashed=1;dashPattern=8 8;" edge="1" parent="1" target="2CJzM1UP2dfj2kKMceD9-46">
          <mxGeometry width="50" height="50" relative="1" as="geometry">
            <mxPoint x="480" y="440" as="sourcePoint" />
            <mxPoint x="479.84000000000003" y="200" as="targetPoint" />
          </mxGeometry>
        </mxCell>
        <mxCell id="2CJzM1UP2dfj2kKMceD9-46" value="" style="rounded=0;whiteSpace=wrap;html=1;" vertex="1" parent="1">
          <mxGeometry x="475" y="340" width="10" height="20" as="geometry" />
        </mxCell>
        <mxCell id="2CJzM1UP2dfj2kKMceD9-49" value="" style="endArrow=none;html=1;rounded=0;entryX=0.387;entryY=1.01;entryDx=0;entryDy=0;dashed=1;dashPattern=8 8;entryPerimeter=0;" edge="1" parent="1" target="2CJzM1UP2dfj2kKMceD9-48">
          <mxGeometry width="50" height="50" relative="1" as="geometry">
            <mxPoint x="635" y="440" as="sourcePoint" />
            <mxPoint x="635" y="200" as="targetPoint" />
          </mxGeometry>
        </mxCell>
        <mxCell id="2CJzM1UP2dfj2kKMceD9-48" value="" style="rounded=0;whiteSpace=wrap;html=1;" vertex="1" parent="1">
          <mxGeometry x="630" y="340" width="10" height="20" as="geometry" />
        </mxCell>
        <mxCell id="2CJzM1UP2dfj2kKMceD9-50" value="" style="endArrow=classic;html=1;rounded=0;entryX=0;entryY=0.5;entryDx=0;entryDy=0;" edge="1" parent="1" target="2CJzM1UP2dfj2kKMceD9-48">
          <mxGeometry relative="1" as="geometry">
            <mxPoint x="325" y="349.7" as="sourcePoint" />
            <mxPoint x="425" y="349.7" as="targetPoint" />
          </mxGeometry>
        </mxCell>
        <mxCell id="2CJzM1UP2dfj2kKMceD9-51" value="I am the leader" style="edgeLabel;resizable=0;html=1;;align=center;verticalAlign=middle;" connectable="0" vertex="1" parent="2CJzM1UP2dfj2kKMceD9-50">
          <mxGeometry relative="1" as="geometry">
            <mxPoint x="-78" as="offset" />
          </mxGeometry>
        </mxCell>
        <mxCell id="2CJzM1UP2dfj2kKMceD9-53" value="Sequence Diagram v1.0" style="rounded=1;whiteSpace=wrap;html=1;" vertex="1" parent="1">
          <mxGeometry x="100" y="130" width="180" height="20" as="geometry" />
        </mxCell>
      </root>
    </mxGraphModel>
  </diagram>
</mxfile>
